<svg width="24" height="24" viewBox="0 0 24 24" fill="none" xmlns="http://www.w3.org/2000/svg">
<path d="M0 12C0 18.6274 5.37258 24 12 24C18.6274 24 24 18.6274 24 12C24 5.37258 18.6274 0 12 0C5.37258 0 0 5.37258 0 12Z" fill="#F56630"/>
<path fill-rule="evenodd" clip-rule="evenodd" d="M11.998 6C10.5736 6.00076 9.19588 6.52097 8.11123 7.4676C7.02657 8.41424 6.3057 9.72557 6.07752 11.1671C5.84933 12.6087 6.12871 14.0864 6.8657 15.3362C7.60269 16.5859 8.74923 17.5261 10.1003 17.9887C10.3984 18.0457 10.5106 17.8553 10.5106 17.6933C10.5106 17.5313 10.5047 17.0617 10.5027 16.5483C8.83351 16.9201 8.48079 15.822 8.48079 15.822C8.20856 15.1089 7.8151 14.9215 7.8151 14.9215C7.27063 14.5405 7.85584 14.5476 7.85584 14.5476C8.45894 14.5914 8.77588 15.1823 8.77588 15.1823C9.31042 16.1225 10.1798 15.8505 10.5216 15.6916C10.5752 15.2933 10.7312 15.0223 10.9031 14.8685C9.56974 14.7137 8.16881 14.186 8.16881 11.8288C8.16055 11.2175 8.38181 10.6263 8.78681 10.1776C8.72521 10.0227 8.51954 9.39726 8.84543 8.54769C8.84543 8.54769 9.34917 8.38267 10.4957 9.17825C11.4792 8.90251 12.5168 8.90251 13.5003 9.17825C14.6459 8.38267 15.1486 8.54769 15.1486 8.54769C15.4755 9.39522 15.2698 10.0207 15.2082 10.1776C15.6145 10.6264 15.8362 11.2186 15.8272 11.8309C15.8272 14.1931 14.4233 14.7137 13.088 14.8655C13.3026 15.057 13.4943 15.4308 13.4943 16.0054C13.4943 16.8284 13.4874 17.4906 13.4874 17.6933C13.4874 17.8573 13.5957 18.0488 13.8997 17.9887C15.2509 17.5261 16.3976 16.5857 17.1346 15.3357C17.8715 14.0858 18.1508 12.6078 17.9223 11.1661C17.6939 9.72443 16.9727 8.41308 15.8876 7.46661C14.8026 6.52014 13.4246 6.00028 12 6H11.998Z" fill="white"/>
</svg>
